<mxfile host="app.diagrams.net" modified="2022-04-17T04:33:54.362Z" agent="5.0 (X11; Linux x86_64) AppleWebKit/537.36 (KHTML, like Gecko) Chrome/99.0.4844.82 Safari/537.36" etag="hNMrkMdTCDxQhMUGEAfq" version="17.4.5" type="github">
  <diagram name="Page-1" id="e7e014a7-5840-1c2e-5031-d8a46d1fe8dd">
    <mxGraphModel dx="1295" dy="764" grid="0" gridSize="10" guides="1" tooltips="1" connect="1" arrows="1" fold="1" page="1" pageScale="1" pageWidth="1169" pageHeight="826" background="none" math="0" shadow="0">
      <root>
        <mxCell id="0" />
        <mxCell id="1" parent="0" />
        <mxCell id="2" value="卖家" style="swimlane;whiteSpace=wrap" parent="1" vertex="1">
          <mxGeometry x="164.5" y="128" width="280" height="570" as="geometry" />
        </mxCell>
        <mxCell id="IBm0Y4fhFuOm3KlaP0if-49" style="edgeStyle=orthogonalEdgeStyle;rounded=0;orthogonalLoop=1;jettySize=auto;html=1;entryX=0.5;entryY=0;entryDx=0;entryDy=0;" edge="1" parent="2" source="5" target="IBm0Y4fhFuOm3KlaP0if-48">
          <mxGeometry relative="1" as="geometry" />
        </mxCell>
        <mxCell id="5" value="" style="ellipse;shape=startState;fillColor=#000000;strokeColor=#ff0000;" parent="2" vertex="1">
          <mxGeometry x="125" y="45" width="30" height="30" as="geometry" />
        </mxCell>
        <mxCell id="IBm0Y4fhFuOm3KlaP0if-48" value="点击商品上传按钮" style="rounded=1;whiteSpace=wrap;html=1;arcSize=50;" vertex="1" parent="2">
          <mxGeometry x="87.25" y="121" width="105.5" height="30" as="geometry" />
        </mxCell>
        <mxCell id="3" value="上传界面" style="swimlane;whiteSpace=wrap" parent="1" vertex="1">
          <mxGeometry x="444.5" y="128" width="280" height="570" as="geometry" />
        </mxCell>
        <mxCell id="IBm0Y4fhFuOm3KlaP0if-53" style="edgeStyle=orthogonalEdgeStyle;rounded=0;orthogonalLoop=1;jettySize=auto;html=1;entryX=0.5;entryY=0;entryDx=0;entryDy=0;" edge="1" parent="3" source="IBm0Y4fhFuOm3KlaP0if-47" target="IBm0Y4fhFuOm3KlaP0if-52">
          <mxGeometry relative="1" as="geometry" />
        </mxCell>
        <mxCell id="IBm0Y4fhFuOm3KlaP0if-47" value="填写商品信息" style="rounded=1;whiteSpace=wrap;html=1;arcSize=50;" vertex="1" parent="3">
          <mxGeometry x="87.25" y="121" width="105.5" height="30" as="geometry" />
        </mxCell>
        <mxCell id="IBm0Y4fhFuOm3KlaP0if-52" value="点击上传按钮" style="rounded=1;whiteSpace=wrap;html=1;arcSize=50;" vertex="1" parent="3">
          <mxGeometry x="87.25" y="206" width="105.5" height="30" as="geometry" />
        </mxCell>
        <mxCell id="4" value="审核员" style="swimlane;whiteSpace=wrap" parent="1" vertex="1">
          <mxGeometry x="724.5" y="128" width="280" height="570" as="geometry" />
        </mxCell>
        <mxCell id="IBm0Y4fhFuOm3KlaP0if-51" value="" style="rounded=1;whiteSpace=wrap;html=1;arcSize=50;" vertex="1" parent="4">
          <mxGeometry x="87.25" y="200" width="105.5" height="30" as="geometry" />
        </mxCell>
        <mxCell id="IBm0Y4fhFuOm3KlaP0if-41" value="数据库" style="swimlane;whiteSpace=wrap" vertex="1" parent="1">
          <mxGeometry x="1004.5" y="128" width="280" height="570" as="geometry" />
        </mxCell>
        <mxCell id="IBm0Y4fhFuOm3KlaP0if-50" style="edgeStyle=orthogonalEdgeStyle;rounded=0;orthogonalLoop=1;jettySize=auto;html=1;entryX=0;entryY=0.5;entryDx=0;entryDy=0;" edge="1" parent="1" source="IBm0Y4fhFuOm3KlaP0if-48" target="IBm0Y4fhFuOm3KlaP0if-47">
          <mxGeometry relative="1" as="geometry" />
        </mxCell>
      </root>
    </mxGraphModel>
  </diagram>
</mxfile>
